<svg width="44" height="45" viewBox="0 0 44 45" fill="none" xmlns="http://www.w3.org/2000/svg">
<rect x="3" y="3.3335" width="38" height="38" rx="19" fill="#82E14F"/>
<rect x="1.5" y="1.8335" width="41" height="41" rx="20.5" stroke="#71DC38" stroke-opacity="0.4" stroke-width="3"/>
<path d="M21.9998 9C14.6478 9 8.6665 14.9813 8.6665 22.3333C8.6665 29.6853 14.6478 35.6667 21.9998 35.6667C29.3518 35.6667 35.3332 29.6853 35.3332 22.3333C35.3332 14.9813 29.3518 9 21.9998 9ZM21.9998 33C16.1185 33 11.3332 28.2147 11.3332 22.3333C11.3332 16.452 16.1185 11.6667 21.9998 11.6667C27.8812 11.6667 32.6665 16.452 32.6665 22.3333C32.6665 28.2147 27.8812 33 21.9998 33Z" fill="white"/>
<path d="M19.3323 24.4493L16.2669 21.3893L14.3843 23.2773L19.3349 28.2173L28.2763 19.276L26.3909 17.3906L19.3323 24.4493Z" fill="white"/>
</svg>
