<svg width="24" height="25" viewBox="0 0 24 25" fill="none" xmlns="http://www.w3.org/2000/svg">
<path d="M12 9.33398C11.206 9.33923 10.4459 9.65698 9.88447 10.2185C9.32299 10.7799 9.00524 11.54 9 12.334C9 13.976 10.358 15.334 12 15.334C13.641 15.334 15 13.976 15 12.334C15 10.693 13.641 9.33398 12 9.33398Z" fill="#B4BDC6"/>
<path d="M12 5.33398C4.36704 5.33398 2.07304 11.951 2.05204 12.018L1.94604 12.334L2.05105 12.65C2.07305 12.717 4.36704 19.334 12 19.334C19.633 19.334 21.927 12.717 21.948 12.65L22.054 12.334L21.949 12.018C21.927 11.951 19.633 5.33398 12 5.33398ZM12 17.334C6.64904 17.334 4.57604 13.488 4.07404 12.334C4.57804 11.176 6.65204 7.33398 12 7.33398C17.351 7.33398 19.424 11.18 19.926 12.334C19.422 13.492 17.348 17.334 12 17.334Z" fill="#B4BDC6"/>
</svg>
